<svg width="64" height="64" viewBox="0 0 64 64" fill="none" xmlns="http://www.w3.org/2000/svg" role="img" aria-label="Taging Line logo">
  <rect x="6" y="6" width="52" height="52" rx="16" fill="#FFF5E8"/>
  <rect x="6" y="6" width="52" height="52" rx="16" stroke="#FEBD5A" stroke-width="2"/>
  <path d="M19 18h18.5C43.3 18 48 22.7 48 28.5S43.3 39 37.5 39H31l-8.8 6.2c-.8.6-2-.1-1.8-1.1l1.1-5.1H19c-5.8 0-10.5-4.7-10.5-10.5S13.2 18 19 18Z" fill="#69CAD8"/>
  <path d="M19 18h18.5C43.3 18 48 22.7 48 28.5S43.3 39 37.5 39H31l-8.8 6.2c-.8.6-2-.1-1.8-1.1l1.1-5.1H19c-5.8 0-10.5-4.7-10.5-10.5S13.2 18 19 18Z" stroke="#332C27" stroke-width="2.5" stroke-linejoin="round"/>
  <path d="M31.2 24.5 43 24.2l6.8 6.8-11 11-7.2-7.2-.4-10.3Z" fill="#FB9D18"/>
  <path d="M31.2 24.5 43 24.2l6.8 6.8-11 11-7.2-7.2-.4-10.3Z" stroke="#332C27" stroke-width="2.5" stroke-linejoin="round"/>
  <circle cx="39.4" cy="29.6" r="2.1" fill="white" stroke="#332C27" stroke-width="1.8"/>
  <path d="m22 28.5 4.1 4.1L35 23.8" stroke="white" stroke-width="3" stroke-linecap="round" stroke-linejoin="round"/>
  <path d="m22 28.5 4.1 4.1L35 23.8" stroke="#332C27" stroke-width="1.2" stroke-linecap="round" stroke-linejoin="round"/>
</svg>
